<svg xmlns="http://www.w3.org/2000/svg" width="100%" viewBox="0 0 61 33" fill="none" class="navbar1_logo"><g clip-path="url(#clip0_5764_2857)"><path d="M53.5015 9.4895C55.8966 9.4895 57.742 10.1289 59.0362 11.4083C60.3453 12.6728 60.9999 14.4359 61 16.6971V22.8119H52.274V26.6056C52.2741 27.617 52.728 28.123 53.6353 28.1231C54.5576 28.1231 55.0189 27.6172 55.019 26.6056V24.887H60.8438V26.2482C60.8438 28.3459 60.2109 29.9904 58.9464 31.1805C57.6819 32.3704 55.8894 32.9656 53.5689 32.9656C51.1141 32.9656 49.2102 32.3327 47.8563 31.0682C46.5026 29.8038 45.8253 28.034 45.8252 25.758V16.6971C45.8253 15.1947 46.1302 13.908 46.7402 12.8369C47.3502 11.7509 48.2282 10.9249 49.3738 10.3596C50.5341 9.77954 51.91 9.48954 53.5015 9.4895ZM18.6541 32.5642H12.2492V9.89183H18.6541V32.5642ZM39.9154 9.4895C41.2098 9.4895 42.2442 9.88357 43.0177 10.6721C43.7913 11.4605 44.1779 12.5548 44.1779 13.9531V32.5642H37.773V15.9607C37.773 15.6189 37.6913 15.3514 37.5279 15.1581C37.3642 14.9498 37.133 14.8456 36.8355 14.8456C36.4787 14.8457 36.1886 14.9717 35.9655 15.2245C35.7423 15.4625 35.6305 15.7903 35.6305 16.2068V32.5642H29.2491V15.9607C29.249 15.6188 29.159 15.3515 28.9805 15.1581C28.817 14.9498 28.5867 14.8456 28.2892 14.8456C27.947 14.8456 27.6638 14.9716 27.4406 15.2245C27.2176 15.4625 27.1067 15.7904 27.1067 16.2068V32.5642H20.7018V9.89085H26.593V12.9033C26.9352 11.892 27.5303 11.0742 28.3781 10.4494C29.2409 9.80969 30.2385 9.4895 31.3691 9.4895C32.4993 9.48958 33.414 9.77208 34.113 10.3371C34.8122 10.9024 35.2593 11.7134 35.4528 12.7696C35.8098 11.7731 36.3746 10.977 37.148 10.382C37.9216 9.78695 38.8443 9.48952 39.9154 9.4895ZM9.57361 9.60082C10.0347 9.60087 10.3919 9.73541 10.6448 10.0031C10.9123 10.2709 11.0461 10.6426 11.0462 11.1184V14.042C11.0462 14.6369 10.8898 15.0984 10.5774 15.4257C10.265 15.738 9.80357 15.8944 9.19375 15.8944H7.74364C7.28245 15.8944 6.9405 15.9985 6.71734 16.2068C6.50908 16.4151 6.40486 16.7571 6.40486 17.2332V32.5632H0V9.89085H5.7799V13.7295C5.92867 12.8517 6.1892 12.1081 6.5611 11.4981C6.93298 10.8734 7.35652 10.4044 7.83251 10.092C8.30857 9.76471 8.77748 9.60082 9.23867 9.60082H9.57361ZM53.5015 14.3096C53.0851 14.3096 52.7656 14.4289 52.5425 14.6669C52.3343 14.9049 52.2301 15.2394 52.2301 15.6708V19.0632H54.7963V15.6708C54.7963 15.2395 54.6844 14.9049 54.4613 14.6669C54.2531 14.4288 53.9329 14.3096 53.5015 14.3096Z" fill="currentColor"></path><path d="M15.4155 8.24052C17.682 8.24052 19.5193 6.40319 19.5193 4.13674C19.5193 1.87028 17.682 0.032959 15.4155 0.032959C13.1491 0.032959 11.3118 1.87028 11.3118 4.13674C11.3118 6.40319 13.1491 8.24052 15.4155 8.24052Z" fill="currentColor"></path></g><defs><clipPath id="clip0_5764_2857"><rect width="61" height="33" fill="white"></rect></clipPath></defs></svg>
